<svg width="674" height="674" viewBox="0 0 674 674" fill="none" xmlns="http://www.w3.org/2000/svg">
<g filter="url(#filter0_d_18_5)">
<path d="M307 330.221C310.886 316.988 311.899 309.64 311.5 296.721C307.941 283.027 305.014 275.725 298.5 263.221L268.5 216.221L270 199.721C268.792 184.096 260.5 162.222 258.5 160.221C256.5 158.221 253 160.221 246.5 168.221C240 176.221 228.04 186.102 221 207.721C203.449 209.7 192.081 202.51 158.5 213.221L154.5 207.721C152.179 208.111 152.418 202.822 134 185.221C115.582 167.62 106.5 165.721 100.5 167.221C94.5 168.721 93.5 176.721 93.5 176.721C93.5 176.721 92.397 226.743 100.5 257.721C100.771 306.674 92.5 387.721 92.5 387.721C92.5 387.721 75.7384 443.817 55.5 476.721L43 482.721M307 330.221C306.42 334.927 305.452 338.392 303.582 341.221M307 330.221C307.795 330.302 306.77 333.259 303.582 341.221M155 349C162.5 354 165.032 355.91 172 358.721C185.414 365.416 195.458 367.201 215.5 368.721C231.767 369.464 241.172 368.732 258.5 365.221C272.942 361.097 280.916 358.611 292 349.721C297.256 346.157 300.795 343.646 303.582 341.221M303.582 341.221L331.5 390.221L358.5 446.721C362.458 453.625 363.895 455.562 365 463.721C366.105 471.881 359.5 486.221 360.5 482.721C361.5 479.221 360.459 485.648 356.5 488.721C352.541 491.795 352.419 494.231 349 495.721C342.845 500.156 338.845 502.451 331.5 503.221C324.395 506.044 319.293 505.11 307 503.221C297.024 502.039 292.052 500.466 284.5 495.721C276.314 492.385 272.457 489.783 268 482.721C264.796 476.646 264.114 473.013 264.5 466.221C264.286 457.682 265.551 452.986 269.5 444.721C274.225 435.022 277.241 430.006 284.5 423.221C293.259 413.091 296.257 409.973 301 405.221C308.029 399.364 311.971 396.079 319 390.221L343.5 370.721L370 346.221L392.5 324.721L417.5 300.221L440.5 281.721C466.71 266.905 478.5 265.721 478.5 265.721C478.5 265.721 494.535 261.355 494.5 264.5M494.5 264.5L491.5 291.721C492.479 303.359 493.703 308.882 497 317.221C497.418 328.984 497.317 335.229 497 346.221C494.296 359.236 489.5 367.221 489.5 367.221C489.5 367.221 484.5 375.221 481.5 378.221L471 383.721C471 383.721 450.305 370.69 453 371.721C448.118 365.473 445.382 360.97 440.5 354.721L425.5 338.721L412.5 331.5M494.5 264.5C508 263 506.651 264.5 517 264.5L541.5 273.721L557.5 284.721L572 300.221L577 314.721L582 322.721L590.5 328.221L604 335.221L616 341.221C616 341.221 622.704 343.269 627 345.221C629.148 346.198 631.5 348.721 631.5 348.721V363.721C631.5 363.721 631 366.221 627 378.221C623 390.221 609.5 403.221 609.5 403.221L595 410.721L568.5 412.721L547 407.221M547 407.221L527 397.221L513 390.221L547 407.221ZM547 407.221L537.5 419.221L527 427.721L513 441.221L500.5 460.221L492 479.721L483.5 499.221L474.5 521.721L466 543.221L457.5 577.221L452.5 605.221L450 626.721C447.975 633.576 447.262 636.348 446.5 640M43 482.721L38 473.5L33 462.5L28.5 451.5L25 441.5L18.5 420L13 397L10 375L8 352.5V326L9 302C9.43187 296.146 9.47736 287.283 11.5 274L15.5 255.5L24.5 228L33.5 206L41 186.5L51.5 168.5L79 127L112 92L143 64.5L183.5 41.5L226 22.5L253 14.5L281 9.5L311.5 6L341.5 4H366L392 7.5L409 10.5L423 14.5L438 19.5L460 28.5L477.5 37L501.5 49L522.5 62.5L543 77.5L565.5 96.5L582.5 114L596 130L611 148.5L624 168.221L633.5 189L642.5 210.5L651.5 232L657.5 256L660.5 275.5L663 297L665.5 318.5V337V359L662 388.5L656.5 416L648 443.5L639 465.5L626.5 491L613 513L601.5 530L586 548.5L566.5 570.5L532 598.5L506 615L480.5 629.5L440 644.5L417.5 651.5L393.5 657L364.5 660L347 661.5H329L312.5 661L290 660L273.5 657L259.5 653.5L242 648.5L220 640.5L198 631.5L178.5 622L157 609.5L140 597.5L123.5 584.5L109.5 573L98 560.5L85.5 547.5L73 533L63 519L57 508.5L43 482.721Z" stroke="url(#paint0_linear_18_5)" stroke-width="8" shape-rendering="crispEdges"/>
</g>
<defs>
<filter id="filter0_d_18_5" x="0" y="0" width="673.5" height="673.5" filterUnits="userSpaceOnUse" color-interpolation-filters="sRGB">
<feFlood flood-opacity="0" result="BackgroundImageFix"/>
<feColorMatrix in="SourceAlpha" type="matrix" values="0 0 0 0 0 0 0 0 0 0 0 0 0 0 0 0 0 0 127 0" result="hardAlpha"/>
<feOffset dy="4"/>
<feGaussianBlur stdDeviation="2"/>
<feComposite in2="hardAlpha" operator="out"/>
<feColorMatrix type="matrix" values="0 0 0 0 0 0 0 0 0 0 0 0 0 0 0 0 0 0 0.25 0"/>
<feBlend mode="normal" in2="BackgroundImageFix" result="effect1_dropShadow_18_5"/>
<feBlend mode="normal" in="SourceGraphic" in2="effect1_dropShadow_18_5" result="shape"/>
</filter>
<linearGradient id="paint0_linear_18_5" x1="618.536" y1="63.7728" x2="67.7727" y2="618.805" gradientUnits="userSpaceOnUse">
<stop stop-color="#F8C6A3"/>
<stop offset="1" stop-color="#F49F45"/>
</linearGradient>
</defs>
</svg>
