<svg viewBox="0 0 1920 1080" fill="none" xmlns="http://www.w3.org/2000/svg">
<g clip-path="url(#clip0_119_49)">
<rect width="1920" height="1080" fill="#FFFEFE"/>
<g class="bg-home-blur2" filter="url(#filter0_f_119_49)">
<rect width="535.102" height="1363.6" rx="55" transform="matrix(0.866025 0.5 -0.866025 0.5 1727.91 131)" fill="url(#paint0_linear_119_49)"/>
</g>
<g class="bg-home-blur1" filter="url(#filter1_f_119_49)">
<rect width="535.102" height="1363.6" rx="55" transform="matrix(0.866025 0.5 -0.866025 0.5 709.911 -52)" fill="url(#paint1_linear_119_49)"/>
</g>
<g class="bg-home-rect2" filter="url(#filter2_b_119_49)">
<rect width="535.102" height="843.545" rx="55" transform="matrix(0.866025 0.5 -0.866025 0.5 1604.53 -176)" fill="url(#paint2_linear_119_49)"/>
</g>
<g class="bg-home-rect1" filter="url(#filter3_b_119_49)">
<rect width="535.102" height="843.545" rx="55" transform="matrix(0.866025 0.5 -0.866025 0.5 821.531 309)" fill="url(#paint3_linear_119_49)"/>
</g>
<g class="bg-home-rect4" filter="url(#filter4_b_119_49)">
<rect width="535.102" height="843.545" rx="55" transform="matrix(0.866025 0.5 -0.866025 0.5 1877.53 336)" fill="url(#paint4_linear_119_49)"/>
</g>
<g class="bg-home-rect3" filter="url(#filter5_b_119_49)">
<rect width="535.102" height="843.545" rx="55" transform="matrix(0.866025 0.5 -0.866025 0.5 675.532 -237)" fill="url(#paint5_linear_119_49)"/>
</g>
<g filter="url(#filter6_d_119_49)">
<path class="bg-home-letter-u" d="M769 744.972C811.163 669.876 846.083 541.854 846.083 541.854C846.083 541.854 863.314 356.885 862.75 245.164C845.869 174.463 848.167 60.3032 848.167 60.3032C848.167 60.3032 850.25 42.0454 862.75 38.622C875.25 35.1987 894.17 39.5325 932.542 79.7021C970.913 119.872 970.415 131.941 975.25 131.052L983.583 143.605C1053.54 119.16 1077.23 135.567 1113.79 131.052C1128.46 81.7125 1153.37 59.1621 1166.92 40.9042C1180.46 22.6464 1187.75 18.0817 1191.92 22.6464C1196.08 27.2111 1213.36 77.1335 1215.88 112.794L1212.75 150.451L1275.25 257.716C1288.82 286.252 1294.92 302.916 1302.33 334.171C1303.17 363.653 1301.05 380.424 1292.96 410.625M1292.96 410.625C1291.75 421.364 1289.73 429.273 1285.84 435.73M1292.96 410.625C1294.61 410.81 1292.48 417.557 1285.84 435.73M988.792 455.129C999.208 471.74 997.191 469.254 1011.71 475.669C1039.65 490.948 1060.58 495.02 1102.33 498.491C1136.22 500.186 1155.82 498.517 1191.92 490.504C1222 481.092 1238.62 475.417 1261.71 455.129C1272.66 446.993 1280.03 441.264 1285.84 435.73M1285.84 435.73L1344 547.559L1400.25 676.505C1408.5 692.262 1411.49 696.68 1413.79 715.303C1416.09 733.926 1402.33 766.653 1404.42 758.666C1406.5 750.678 1404.33 765.345 1396.08 772.359C1387.83 779.373 1387.58 784.934 1380.46 788.335C1367.64 798.455 1359.3 803.693 1344 805.451C1329.2 811.894 1318.57 809.762 1292.96 805.451C1272.17 802.753 1261.82 799.163 1246.08 788.335C1229.03 780.721 1220.99 774.781 1211.71 758.666C1205.03 744.8 1203.61 736.51 1204.42 721.009C1203.97 701.52 1206.61 690.803 1214.83 671.941C1224.68 649.805 1230.96 638.357 1246.08 622.873C1264.33 599.754 1270.58 592.636 1280.46 581.793C1295.1 568.424 1303.31 560.928 1317.96 547.559L1369 503.056L1424.21 447.141L1471.08 398.073L1523.17 342.159L1571.08 299.937C1625.69 266.123 1650.25 263.422 1650.25 263.422C1650.25 263.422 1683.66 253.456 1683.58 260.634M1683.58 260.634L1677.33 322.76C1679.37 349.319 1681.92 361.925 1688.79 380.956C1689.66 407.8 1689.45 422.054 1688.79 447.141C1683.16 476.843 1673.17 495.068 1673.17 495.068C1673.17 495.068 1662.75 513.326 1656.5 520.173L1634.63 532.725C1634.63 532.725 1591.51 502.985 1597.13 505.338C1586.96 491.078 1581.25 480.8 1571.08 466.54L1539.83 430.024L1523.17 410.625M1683.58 260.634C1711.71 257.211 1708.9 260.634 1730.46 260.634L1781.5 281.679L1814.83 306.784L1845.04 342.159L1855.46 375.251L1865.88 393.509L1883.58 406.061L1911.71 422.037L1936.71 435.73C1936.71 435.73 1950.68 440.403 1959.63 444.859C1964.1 447.087 1969 452.847 1969 452.847V487.08C1969 487.08 1967.96 492.786 1959.63 520.173C1951.29 547.559 1923.17 577.228 1923.17 577.228L1892.96 594.345L1837.75 598.909L1792.96 586.357M1792.96 586.357L1751.29 563.535L1722.13 547.559L1792.96 586.357ZM1792.96 586.357L1773.17 613.744L1751.29 633.143L1722.13 663.953L1696.08 707.315L1678.38 751.819L1660.67 796.322L1641.92 847.672L1624.21 896.74L1606.5 974.336L1596.08 1038.24L1590.88 1087.31V1101" stroke="url(#paint6_linear_119_49)" stroke-width="2" shape-rendering="crispEdges"/>
<path d="M769 744.972C811.163 669.876 846.083 541.854 846.083 541.854C846.083 541.854 863.314 356.885 862.75 245.164C845.869 174.463 848.167 60.3032 848.167 60.3032C848.167 60.3032 850.25 42.0454 862.75 38.622C875.25 35.1987 894.17 39.5325 932.542 79.7021C970.913 119.872 970.415 131.941 975.25 131.052L983.583 143.605C1053.54 119.16 1077.23 135.567 1113.79 131.052C1128.46 81.7125 1153.37 59.1621 1166.92 40.9042C1180.46 22.6464 1187.75 18.0817 1191.92 22.6464C1196.08 27.2111 1213.36 77.1335 1215.88 112.794L1212.75 150.451L1275.25 257.716C1288.82 286.252 1294.92 302.916 1302.33 334.171C1303.17 363.653 1301.05 380.424 1292.96 410.625M1292.96 410.625C1291.75 421.364 1289.73 429.273 1285.84 435.73M1292.96 410.625C1294.61 410.81 1292.48 417.557 1285.84 435.73M988.792 455.129C999.208 471.74 997.191 469.254 1011.71 475.669C1039.65 490.948 1060.58 495.02 1102.33 498.491C1136.22 500.186 1155.82 498.517 1191.92 490.504C1222 481.092 1238.62 475.417 1261.71 455.129C1272.66 446.993 1280.03 441.264 1285.84 435.73M1285.84 435.73L1344 547.559L1400.25 676.505C1408.5 692.262 1411.49 696.68 1413.79 715.303C1416.09 733.926 1402.33 766.653 1404.42 758.666C1406.5 750.678 1404.33 765.345 1396.08 772.359C1387.83 779.373 1387.58 784.934 1380.46 788.335C1367.64 798.455 1359.3 803.693 1344 805.451C1329.2 811.894 1318.57 809.762 1292.96 805.451C1272.17 802.753 1261.82 799.163 1246.08 788.335C1229.03 780.721 1220.99 774.781 1211.71 758.666C1205.03 744.8 1203.61 736.51 1204.42 721.009C1203.97 701.52 1206.61 690.803 1214.83 671.941C1224.68 649.805 1230.96 638.357 1246.08 622.873C1264.33 599.754 1270.58 592.636 1280.46 581.793C1295.1 568.424 1303.31 560.928 1317.96 547.559L1369 503.056L1424.21 447.141L1471.08 398.073L1523.17 342.159L1571.08 299.937C1625.69 266.123 1650.25 263.422 1650.25 263.422C1650.25 263.422 1683.66 253.456 1683.58 260.634M1683.58 260.634L1677.33 322.76C1679.37 349.319 1681.92 361.925 1688.79 380.956C1689.66 407.8 1689.45 422.054 1688.79 447.141C1683.16 476.843 1673.17 495.068 1673.17 495.068C1673.17 495.068 1662.75 513.326 1656.5 520.173L1634.63 532.725C1634.63 532.725 1591.51 502.985 1597.13 505.338C1586.96 491.078 1581.25 480.8 1571.08 466.54L1539.83 430.024L1523.17 410.625M1683.58 260.634C1711.71 257.211 1708.9 260.634 1730.46 260.634L1781.5 281.679L1814.83 306.784L1845.04 342.159L1855.46 375.251L1865.88 393.509L1883.58 406.061L1911.71 422.037L1936.71 435.73C1936.71 435.73 1950.68 440.403 1959.63 444.859C1964.1 447.087 1969 452.847 1969 452.847V487.08C1969 487.08 1967.96 492.786 1959.63 520.173C1951.29 547.559 1923.17 577.228 1923.17 577.228L1892.96 594.345L1837.75 598.909L1792.96 586.357M1792.96 586.357L1751.29 563.535L1722.13 547.559L1792.96 586.357ZM1792.96 586.357L1773.17 613.744L1751.29 633.143L1722.13 663.953L1696.08 707.315L1678.38 751.819L1660.67 796.322L1641.92 847.672L1624.21 896.74L1606.5 974.336L1596.08 1038.24L1590.88 1087.31V1101" stroke="url(#paint7_linear_119_49)" stroke-opacity="0.2" stroke-width="2" shape-rendering="crispEdges"/>
</g>
<g clip-path="url(#clip1_119_49)">
<rect x="126" y="959" width="262" height="131" fill="#FFFDFD"/>
</g>
</g>
<defs>
<filter id="filter0_f_119_49" x="324.902" y="-102.891" width="2088.52" height="1417.13" filterUnits="userSpaceOnUse" color-interpolation-filters="sRGB">
<feFlood flood-opacity="0" result="BackgroundImageFix"/>
<feBlend mode="normal" in="SourceGraphic" in2="BackgroundImageFix" result="shape"/>
<feGaussianBlur stdDeviation="125" result="effect1_foregroundBlur_119_49"/>
</filter>
<filter id="filter1_f_119_49" x="-693.098" y="-285.891" width="2088.52" height="1417.13" filterUnits="userSpaceOnUse" color-interpolation-filters="sRGB">
<feFlood flood-opacity="0" result="BackgroundImageFix"/>
<feBlend mode="normal" in="SourceGraphic" in2="BackgroundImageFix" result="shape"/>
<feGaussianBlur stdDeviation="125" result="effect1_foregroundBlur_119_49"/>
</filter>
<filter id="filter2_b_119_49" x="883.901" y="-177.891" width="1174.14" height="693.105" filterUnits="userSpaceOnUse" color-interpolation-filters="sRGB">
<feFlood flood-opacity="0" result="BackgroundImageFix"/>
<feGaussianBlur in="BackgroundImageFix" stdDeviation="9"/>
<feComposite in2="SourceAlpha" operator="in" result="effect1_backgroundBlur_119_49"/>
<feBlend mode="normal" in="SourceGraphic" in2="effect1_backgroundBlur_119_49" result="shape"/>
</filter>
<filter id="filter3_b_119_49" x="100.901" y="307.109" width="1174.14" height="693.105" filterUnits="userSpaceOnUse" color-interpolation-filters="sRGB">
<feFlood flood-opacity="0" result="BackgroundImageFix"/>
<feGaussianBlur in="BackgroundImageFix" stdDeviation="9"/>
<feComposite in2="SourceAlpha" operator="in" result="effect1_backgroundBlur_119_49"/>
<feBlend mode="normal" in="SourceGraphic" in2="effect1_backgroundBlur_119_49" result="shape"/>
</filter>
<filter id="filter4_b_119_49" x="1156.9" y="334.109" width="1174.14" height="693.105" filterUnits="userSpaceOnUse" color-interpolation-filters="sRGB">
<feFlood flood-opacity="0" result="BackgroundImageFix"/>
<feGaussianBlur in="BackgroundImageFix" stdDeviation="9"/>
<feComposite in2="SourceAlpha" operator="in" result="effect1_backgroundBlur_119_49"/>
<feBlend mode="normal" in="SourceGraphic" in2="effect1_backgroundBlur_119_49" result="shape"/>
</filter>
<filter id="filter5_b_119_49" x="-45.098" y="-238.891" width="1174.14" height="693.105" filterUnits="userSpaceOnUse" color-interpolation-filters="sRGB">
<feFlood flood-opacity="0" result="BackgroundImageFix"/>
<feGaussianBlur in="BackgroundImageFix" stdDeviation="9"/>
<feComposite in2="SourceAlpha" operator="in" result="effect1_backgroundBlur_119_49"/>
<feBlend mode="normal" in="SourceGraphic" in2="effect1_backgroundBlur_119_49" result="shape"/>
</filter>
<filter id="filter6_d_119_49" x="764.128" y="20" width="1209.87" height="1089" filterUnits="userSpaceOnUse" color-interpolation-filters="sRGB">
<feFlood flood-opacity="0" result="BackgroundImageFix"/>
<feColorMatrix in="SourceAlpha" type="matrix" values="0 0 0 0 0 0 0 0 0 0 0 0 0 0 0 0 0 0 127 0" result="hardAlpha"/>
<feOffset dy="4"/>
<feGaussianBlur stdDeviation="2"/>
<feComposite in2="hardAlpha" operator="out"/>
<feColorMatrix type="matrix" values="0 0 0 0 0 0 0 0 0 0 0 0 0 0 0 0 0 0 0.25 0"/>
<feBlend mode="normal" in2="BackgroundImageFix" result="effect1_dropShadow_119_49"/>
<feBlend mode="normal" in="SourceGraphic" in2="effect1_dropShadow_119_49" result="shape"/>
</filter>
<linearGradient id="paint0_linear_119_49" x1="535.102" y1="0" x2="-392.29" y2="363.927" gradientUnits="userSpaceOnUse">
<stop stop-color="#F8C6A3"/>
<stop offset="1" stop-color="#F49F45" stop-opacity="0"/>
</linearGradient>
<linearGradient id="paint1_linear_119_49" x1="535.102" y1="0" x2="-392.29" y2="363.927" gradientUnits="userSpaceOnUse">
<stop stop-color="#F8C6A3"/>
<stop offset="1" stop-color="#F49F45" stop-opacity="0"/>
</linearGradient>
<linearGradient id="paint2_linear_119_49" x1="267.551" y1="0" x2="267.551" y2="843.545" gradientUnits="userSpaceOnUse">
<stop stop-color="#F6F3F7"/>
<stop offset="1" stop-color="#F3F0F5" stop-opacity="0"/>
</linearGradient>
<linearGradient id="paint3_linear_119_49" x1="267.551" y1="0" x2="267.551" y2="843.545" gradientUnits="userSpaceOnUse">
<stop stop-color="#F6F3F7"/>
<stop offset="1" stop-color="#F3F0F5" stop-opacity="0"/>
</linearGradient>
<linearGradient id="paint4_linear_119_49" x1="267.551" y1="0" x2="267.551" y2="843.545" gradientUnits="userSpaceOnUse">
<stop stop-color="#F6F3F7"/>
<stop offset="1" stop-color="#F3F0F5" stop-opacity="0"/>
</linearGradient>
<linearGradient id="paint5_linear_119_49" x1="267.551" y1="0" x2="267.551" y2="843.545" gradientUnits="userSpaceOnUse">
<stop stop-color="#F6F3F7"/>
<stop offset="1" stop-color="#F3F0F5" stop-opacity="0"/>
</linearGradient>
<linearGradient id="paint6_linear_119_49" x1="897.571" y1="953.562" x2="736.753" y2="67.0431" gradientUnits="userSpaceOnUse">
<stop stop-color="#F49F45" stop-opacity="0.7"/>
<stop offset="0.83" stop-color="#F49F45" stop-opacity="0"/>
<stop offset="1" stop-color="#F49F45" stop-opacity="0"/>
</linearGradient>
<linearGradient id="paint7_linear_119_49" x1="1627.86" y1="142.348" x2="1591.79" y2="1100.85" gradientUnits="userSpaceOnUse">
<stop stop-color="#F49F45" stop-opacity="0.7"/>
<stop offset="1" stop-color="#F49F45" stop-opacity="0"/>
</linearGradient>
<clipPath id="clip0_119_49">
<rect width="1920" height="1080" fill="white"/>
</clipPath>
<clipPath id="clip1_119_49">
<rect width="282" height="173" fill="white" transform="translate(126 907)"/>
</clipPath>
</defs>
</svg>
