<svg width="232" height="232" viewBox="0 0 232 232" fill="none" xmlns="http://www.w3.org/2000/svg">
<g filter="url(#filter0_dddd_93_49)">
<rect x="80" y="29" width="72" height="72" rx="17.0769" fill="#FEFBFF"/>
</g>
<g clip-path="url(#clip0_93_49)">
<path d="M135 57.5785C131.264 57.5855 127.621 56.5652 124.584 54.6617V67.932C124.583 70.3898 123.725 72.7887 122.123 74.8079C120.522 76.8272 118.254 78.3705 115.624 79.2315C112.993 80.0925 110.124 80.2301 107.402 79.626C104.679 79.0218 102.232 77.7047 100.388 75.8507C98.5442 73.9967 97.3911 71.6943 97.0832 69.2514C96.7752 66.8085 97.327 64.3415 98.6648 62.1805C100.003 60.0194 102.063 58.2673 104.569 57.1584C107.076 56.0496 109.91 55.6368 112.692 55.9754V62.6477C111.42 62.2973 110.054 62.3075 108.789 62.6769C107.524 63.0464 106.424 63.7561 105.648 64.7048C104.871 65.6535 104.457 66.7926 104.464 67.9595C104.472 69.1264 104.9 70.2615 105.689 71.2026C106.477 72.1437 107.586 72.8427 108.855 73.1999C110.125 73.557 111.491 73.5541 112.759 73.1914C114.026 72.8287 115.13 72.1249 115.914 71.1804C116.697 70.2359 117.119 69.099 117.12 67.932V42H124.584C124.58 42.5524 124.634 43.1039 124.745 43.6477C125.005 44.8597 125.544 46.0126 126.33 47.036C127.116 48.0595 128.132 48.9319 129.317 49.6C131.003 50.5744 132.979 51.0932 135 51.0918V57.5785Z" fill="url(#paint0_linear_93_49)"/>
</g>
<defs>
<filter id="filter0_dddd_93_49" x="0" y="0" width="232" height="232" filterUnits="userSpaceOnUse" color-interpolation-filters="sRGB">
<feFlood flood-opacity="0" result="BackgroundImageFix"/>
<feColorMatrix in="SourceAlpha" type="matrix" values="0 0 0 0 0 0 0 0 0 0 0 0 0 0 0 0 0 0 127 0" result="hardAlpha"/>
<feOffset dy="2.30969"/>
<feGaussianBlur stdDeviation="1.81152"/>
<feColorMatrix type="matrix" values="0 0 0 0 0.662745 0 0 0 0 0.313726 0 0 0 0 0.768627 0 0 0 0.0278729 0"/>
<feBlend mode="normal" in2="BackgroundImageFix" result="effect1_dropShadow_93_49"/>
<feColorMatrix in="SourceAlpha" type="matrix" values="0 0 0 0 0 0 0 0 0 0 0 0 0 0 0 0 0 0 127 0" result="hardAlpha"/>
<feOffset dy="6.38599"/>
<feGaussianBlur stdDeviation="5.00862"/>
<feColorMatrix type="matrix" values="0 0 0 0 0.662745 0 0 0 0 0.313726 0 0 0 0 0.768627 0 0 0 0.04 0"/>
<feBlend mode="normal" in2="effect1_dropShadow_93_49" result="effect2_dropShadow_93_49"/>
<feColorMatrix in="SourceAlpha" type="matrix" values="0 0 0 0 0 0 0 0 0 0 0 0 0 0 0 0 0 0 127 0" result="hardAlpha"/>
<feOffset dy="15.375"/>
<feGaussianBlur stdDeviation="12.0588"/>
<feColorMatrix type="matrix" values="0 0 0 0 0.662745 0 0 0 0 0.313726 0 0 0 0 0.768627 0 0 0 0.0521271 0"/>
<feBlend mode="normal" in2="effect2_dropShadow_93_49" result="effect3_dropShadow_93_49"/>
<feColorMatrix in="SourceAlpha" type="matrix" values="0 0 0 0 0 0 0 0 0 0 0 0 0 0 0 0 0 0 127 0" result="hardAlpha"/>
<feOffset dy="51"/>
<feGaussianBlur stdDeviation="40"/>
<feColorMatrix type="matrix" values="0 0 0 0 0.662745 0 0 0 0 0.313726 0 0 0 0 0.768627 0 0 0 0.08 0"/>
<feBlend mode="normal" in2="effect3_dropShadow_93_49" result="effect4_dropShadow_93_49"/>
<feBlend mode="normal" in="SourceGraphic" in2="effect4_dropShadow_93_49" result="shape"/>
</filter>
<linearGradient id="paint0_linear_93_49" x1="132.286" y1="45.4542" x2="100.458" y2="77.5321" gradientUnits="userSpaceOnUse">
<stop stop-color="#F8C6A3"/>
<stop offset="1" stop-color="#F49F45"/>
</linearGradient>
<clipPath id="clip0_93_49">
<rect width="38" height="38" fill="white" transform="translate(97 42)"/>
</clipPath>
</defs>
</svg>
