<svg width="72" height="72" viewBox="0 0 72 72" fill="none" xmlns="http://www.w3.org/2000/svg">
<rect width="72" height="72" rx="17.0769" fill="#FEFBFF"/>
<g clip-path="url(#clip0_93_49)">
<path d="M55 28.5785C51.2644 28.5855 47.6208 27.5652 44.5839 25.6617V38.932C44.5831 41.3898 43.7246 43.7887 42.1234 45.8079C40.5221 47.8272 38.2545 49.3705 35.6236 50.2315C32.9928 51.0925 30.1242 51.2301 27.4016 50.626C24.679 50.0218 22.232 48.7047 20.3881 46.8507C18.5442 44.9967 17.3911 42.6943 17.0832 40.2514C16.7752 37.8085 17.327 35.3415 18.6648 33.1805C20.0027 31.0194 22.0627 29.2673 24.5694 28.1584C27.076 27.0496 29.9099 26.6368 32.692 26.9754V33.6477C31.4199 33.2973 30.0538 33.3075 28.7887 33.677C27.5237 34.0464 26.4244 34.7561 25.6478 35.7048C24.8712 36.6535 24.457 37.7926 24.4644 38.9595C24.4718 40.1264 24.9003 41.2614 25.6888 42.2026C26.4774 43.1437 27.5856 43.8427 28.8552 44.1999C30.1248 44.5571 31.491 44.5541 32.7586 44.1914C34.0262 43.8287 35.1304 43.1249 35.9136 42.1804C36.6968 41.2359 37.1189 40.099 37.1197 38.932V13H44.5839C44.5797 13.5524 44.6337 14.1039 44.7451 14.6477C45.0047 15.8597 45.544 17.0126 46.3301 18.036C47.1162 19.0595 48.1325 19.9319 49.317 20.6C51.003 21.5744 52.9794 22.0932 55 22.0918V28.5785Z" fill="url(#paint0_linear_93_49)"/>
</g>
<defs>
<linearGradient id="paint0_linear_93_49" x1="52.2857" y1="16.4542" x2="20.4577" y2="48.5321" gradientUnits="userSpaceOnUse">
<stop stop-color="#F8C6A3"/>
<stop offset="1" stop-color="#F49F45"/>
</linearGradient>
<clipPath id="clip0_93_49">
<rect width="38" height="38" fill="white" transform="translate(17 13)"/>
</clipPath>
</defs>
</svg>
