<svg width="72" height="72" viewBox="0 0 72 72" fill="none" xmlns="http://www.w3.org/2000/svg">
<rect width="72" height="72" rx="17.0769" fill="#FEFBFF"/>
<g clip-path="url(#clip0_149_8)">
<path d="M38.6085 29.4629H19.9829C19.7838 29.4629 19.6229 29.6238 19.6229 29.8229C19.6229 30.022 19.7838 30.1829 19.9829 30.1829H38.6085C38.8076 30.1829 38.9685 30.022 38.9685 29.8229C38.9685 29.6238 38.8076 29.4629 38.6085 29.4629Z" fill="#FA8102"/>
<path d="M38.6085 32.9771H19.9829C19.7838 32.9771 19.6229 33.138 19.6229 33.3371C19.6229 33.5361 19.7838 33.6971 19.9829 33.6971H38.6085C38.8076 33.6971 38.9685 33.5361 38.9685 33.3371C38.9685 33.138 38.8076 32.9771 38.6085 32.9771Z" fill="#FA8102"/>
<path d="M38.6085 36.4917H19.9829C19.7838 36.4917 19.6229 36.6526 19.6229 36.8517C19.6229 37.0508 19.7838 37.2117 19.9829 37.2117H38.6085C38.8076 37.2117 38.9685 37.0508 38.9685 36.8517C38.9685 36.6526 38.8076 36.4917 38.6085 36.4917Z" fill="#FA8102"/>
<path d="M38.6085 40.0059H19.9829C19.7838 40.0059 19.6229 40.1668 19.6229 40.3659C19.6229 40.5649 19.7838 40.7259 19.9829 40.7259H38.6085C38.8076 40.7259 38.9685 40.5649 38.9685 40.3659C38.9685 40.1668 38.8076 40.0059 38.6085 40.0059Z" fill="#FA8102"/>
<path d="M47.3943 43.52H34.3915C34.1924 43.52 34.0315 43.6809 34.0315 43.88C34.0315 44.0791 34.1924 44.24 34.3915 44.24H47.3943C47.5931 44.24 47.7543 44.0791 47.7543 43.88C47.7543 43.6809 47.5934 43.52 47.3943 43.52Z" fill="#FA8102"/>
<path d="M47.3943 47.0342H34.3915C34.1924 47.0342 34.0315 47.1951 34.0315 47.3942C34.0315 47.5933 34.1924 47.7542 34.3915 47.7542H47.3943C47.5931 47.7542 47.7543 47.5933 47.7543 47.3942C47.7543 47.1951 47.5934 47.0342 47.3943 47.0342Z" fill="#FA8102"/>
<path d="M47.3943 50.5483H34.3915C34.1924 50.5483 34.0315 50.7093 34.0315 50.9083C34.0315 51.1074 34.1924 51.2683 34.3915 51.2683H47.3943C47.5931 51.2683 47.7543 51.1074 47.7543 50.9083C47.7543 50.7093 47.5934 50.5483 47.3943 50.5483Z" fill="#FA8102"/>
<path d="M47.3943 54.063H34.3915C34.1924 54.063 34.0315 54.2239 34.0315 54.423C34.0315 54.6221 34.1924 54.783 34.3915 54.783H47.3943C47.5931 54.783 47.7543 54.6221 47.7543 54.423C47.7543 54.2239 47.5934 54.063 47.3943 54.063Z" fill="#FA8102"/>
<path d="M47.3943 29.4629H41.7715C41.5724 29.4629 41.4115 29.6238 41.4115 29.8229C41.4115 30.022 41.5724 30.1829 41.7715 30.1829H47.3943C47.5931 30.1829 47.7543 30.022 47.7543 29.8229C47.7543 29.6238 47.5934 29.4629 47.3943 29.4629Z" fill="#FA8102"/>
<path d="M47.3943 32.9771H41.7715C41.5724 32.9771 41.4115 33.138 41.4115 33.3371C41.4115 33.5361 41.5724 33.6971 41.7715 33.6971H47.3943C47.5931 33.6971 47.7543 33.5361 47.7543 33.3371C47.7543 33.138 47.5934 32.9771 47.3943 32.9771Z" fill="#FA8102"/>
<path d="M47.3943 36.4917H41.7715C41.5724 36.4917 41.4115 36.6526 41.4115 36.8517C41.4115 37.0508 41.5724 37.2117 41.7715 37.2117H47.3943C47.5931 37.2117 47.7543 37.0508 47.7543 36.8517C47.7543 36.6526 47.5934 36.4917 47.3943 36.4917Z" fill="#FA8102"/>
<path d="M47.3943 40.0059H41.7715C41.5724 40.0059 41.4115 40.1668 41.4115 40.3659C41.4115 40.5649 41.5724 40.7259 41.7715 40.7259H47.3943C47.5931 40.7259 47.7543 40.5649 47.7543 40.3659C47.7543 40.1668 47.5934 40.0059 47.3943 40.0059Z" fill="#FA8102"/>
<path d="M53.7199 58.2798H19.2797C19.0807 58.2798 18.9197 58.4407 18.9197 58.6398C18.9197 58.8389 19.0807 58.9998 19.2797 58.9998H53.7199C53.9189 58.9998 54.0799 58.8389 54.0799 58.6398C54.0799 58.4407 53.9189 58.2798 53.7199 58.2798Z" fill="#FA8102"/>
<path d="M50.306 14H17.263C16.7079 14 16.1085 14.3816 16.1085 14.9986V55.8284C16.1085 56.0275 16.2694 56.1884 16.4685 56.1884C16.6676 56.1884 16.8285 56.0275 16.8285 55.8284V14.9986C16.8285 14.8417 17.0618 14.72 17.263 14.72H50.306C50.423 14.72 50.5483 14.7412 50.5483 14.9986V55.8284C50.5483 56.0275 50.7092 56.1884 50.9083 56.1884C51.1074 56.1884 51.2683 56.0275 51.2683 55.8284V14.9986C51.2683 14.4014 50.8816 14 50.306 14Z" fill="#FA8102"/>
<path d="M47.3943 18.2168H19.9829C19.7838 18.2168 19.6229 18.3777 19.6229 18.5768V26.3082C19.6229 26.5072 19.7838 26.6682 19.9829 26.6682H47.3943C47.5931 26.6682 47.7543 26.5072 47.7543 26.3082V18.5768C47.7543 18.3777 47.5934 18.2168 47.3943 18.2168ZM20.3429 25.9482V18.9368H47.0343V25.9482H20.3429Z" fill="#FA8102"/>
<path d="M30.5255 43.52H19.9829C19.7838 43.52 19.6229 43.6809 19.6229 43.88V54.423C19.6229 54.6221 19.7838 54.783 19.9829 54.783H30.5255C30.7245 54.783 30.8855 54.6221 30.8855 54.423V43.88C30.8855 43.6809 30.7245 43.52 30.5255 43.52ZM30.1655 54.063H20.3429V44.24H30.1655V54.063Z" fill="#FA8102"/>
<path d="M19.2798 58.2799C17.9283 58.2799 16.8285 57.1801 16.8285 55.8283C16.8285 55.6292 16.6676 55.4683 16.4685 55.4683C16.2694 55.4683 16.1085 55.6292 16.1085 55.8283C16.1085 57.5771 17.5312 58.9999 19.2798 58.9999C19.4788 58.9999 19.6398 58.8389 19.6398 58.6399C19.6398 58.4408 19.4788 58.2799 19.2798 58.2799Z" fill="#FA8102"/>
<path d="M56.5315 40.0059H51.2686C51.0696 40.0059 50.9086 40.1668 50.9086 40.3659C50.9086 40.5649 51.0696 40.7259 51.2686 40.7259H56.1715V55.7645C56.1715 57.1282 55.0486 58.2802 53.7199 58.2802C52.3681 58.2802 51.2683 57.1804 51.2683 55.8286C51.2683 55.6295 51.1074 55.4686 50.9083 55.4686C50.7092 55.4686 50.5483 55.6295 50.5483 55.8286C50.5483 57.5775 51.9714 59.0002 53.7199 59.0002C55.4684 59.0002 56.8915 57.5487 56.8915 55.7641V40.3659C56.8915 40.1668 56.7306 40.0059 56.5315 40.0059Z" fill="#FA8102"/>
</g>
<defs>
<clipPath id="clip0_149_8">
<rect width="45" height="45" fill="white" transform="translate(14 14)"/>
</clipPath>
</defs>
</svg>
