<svg width="72" height="72" viewBox="0 0 72 72" fill="none" xmlns="http://www.w3.org/2000/svg">
<rect width="72" height="72" rx="17.0769" fill="#FEFBFF"/>
<path d="M53.65 30.4938C53.65 21.0375 45.957 13.3438 36.5 13.3438C27.043 13.3438 19.35 21.0375 19.35 30.4938C19.35 37.0682 23.0698 42.7872 28.5137 45.6642C28.5179 45.7006 28.5165 45.7363 28.5242 45.7727L30.5542 55.95C30.6837 56.6066 31.2591 56.9083 31.9276 56.9083H34.2957C34.5386 57.6083 34.9845 57.6083 35.5018 57.6083H36.9018C37.4184 57.6083 37.865 57.6083 38.1079 56.9083H40.4676C41.1382 56.9083 41.715 56.5842 41.8424 55.9255L43.7828 46.0037C49.6075 43.2597 53.65 37.3475 53.65 30.4938ZM39.3119 54.1083H33.0784L31.6308 46.9116C33.1757 47.3694 34.8088 47.6312 36.5007 47.6312C37.9455 47.6312 39.349 47.4317 40.6909 47.0936L39.3119 54.1083ZM34.4819 44.6226L32.5401 35.2713C32.5716 35.2734 32.6024 35.2797 32.6346 35.2797C33.2429 35.2797 33.7693 34.8534 34.1025 34.1016C34.1221 34.0785 34.1403 34.0547 34.1564 34.0288C34.1886 33.9791 34.2173 33.9427 34.2404 33.9182C34.2628 33.9434 34.2915 33.9784 34.323 34.0281C34.3433 34.0596 34.3671 34.0897 34.3937 34.117C34.7283 34.8547 35.2505 35.272 35.8518 35.272C36.1871 35.272 36.8136 35.1334 37.2665 34.2094C37.2714 34.201 37.2763 34.1919 37.2805 34.1828C37.2959 34.1499 37.3113 34.1156 37.326 34.0813C37.34 34.0645 37.3519 34.0463 37.3645 34.0281C37.3967 33.9784 37.4254 33.9419 37.4485 33.9174C37.4716 33.9419 37.5003 33.9784 37.5325 34.0281C37.5472 34.0519 37.5647 34.0736 37.5829 34.0953C37.9154 34.8513 38.4432 35.2789 39.0543 35.2789C39.6633 35.2789 40.1904 34.8527 40.5229 34.1002C40.5418 34.0771 40.5607 34.0533 40.5768 34.0274C40.6083 33.9784 40.637 33.9419 40.6594 33.9174C40.6776 33.9363 40.7014 33.9693 40.7245 34.0029L38.5195 44.6219C38.5153 44.6429 38.5216 44.6639 38.5195 44.6849C37.8587 44.778 37.1881 44.8431 36.5014 44.8431C35.8147 44.8431 35.1448 44.778 34.484 44.6849C34.4798 44.6646 34.4868 44.6443 34.4819 44.6226ZM39.9951 44.3972L42.1819 33.8671C42.2491 33.5465 42.0769 33.242 41.7934 33.1062C41.1662 32.3138 40.1442 32.3005 39.5212 33.0971C39.419 33.1762 39.3378 33.284 39.2916 33.4107C39.2041 33.648 39.1117 33.7817 39.0529 33.8461C38.9934 33.7824 38.901 33.6487 38.8135 33.4107C38.7729 33.2994 38.7001 33.2035 38.6084 33.1279C38.1884 32.5714 37.7082 32.4832 37.4471 32.4832C37.1888 32.4832 36.7135 32.57 36.2956 33.1146C36.2046 33.1902 36.1332 33.2896 36.0891 33.4058C36.0667 33.466 36.0422 33.5241 36.0219 33.5661C36.0191 33.5717 36.0156 33.578 36.0128 33.5836C35.9505 33.7131 35.8917 33.7929 35.8511 33.837C35.7923 33.7733 35.7006 33.641 35.6138 33.4072C35.5704 33.291 35.4906 33.1909 35.3912 33.1153C35.0776 32.7058 34.6737 32.4825 34.239 32.4825C33.9835 32.4825 33.5159 32.5672 33.1022 33.0964C33 33.1755 32.9188 33.2826 32.8726 33.4093C32.7851 33.6473 32.692 33.781 32.6332 33.8454C32.5744 33.7817 32.4813 33.648 32.3938 33.4093C32.2923 33.1342 31.9948 32.9508 31.7015 32.9508C31.5832 32.9508 31.4789 32.9872 31.3837 33.039C31.376 33.0404 31.369 33.0376 31.3613 33.039C30.9826 33.1174 30.739 33.4884 30.8181 33.8664L33.0049 44.3965C26.7721 42.8348 22.15 37.2117 22.15 30.4938C22.15 22.5677 28.5746 16.1438 36.5 16.1438C44.4254 16.1438 50.85 22.5677 50.85 30.4938C50.85 37.2117 46.2279 42.8348 39.9951 44.3972Z" fill="#F49F45"/>
<path d="M34.9894 19.2197C34.7164 19.2197 34.4455 19.2309 34.1774 19.2526C33.7917 19.2841 33.5054 19.6222 33.5369 20.0079C33.5677 20.3733 33.8729 20.6505 34.2341 20.6505C34.253 20.6505 34.2733 20.6498 34.2922 20.6484C34.5218 20.6295 34.7549 20.6197 34.9894 20.6197C35.3765 20.6197 35.6894 20.3061 35.6894 19.9197C35.6894 19.5333 35.3765 19.2197 34.9894 19.2197Z" fill="#F49F45"/>
<path d="M30.921 20.1049C27.4616 21.6932 25.2258 25.1778 25.2258 28.983C25.2258 29.3694 25.5387 29.683 25.9258 29.683C26.3129 29.683 26.6258 29.3694 26.6258 28.983C26.6258 25.7231 28.541 22.7376 31.5048 21.3768C31.8562 21.2158 32.0109 20.8 31.8492 20.4486C31.6875 20.0979 31.271 19.9439 30.921 20.1049Z" fill="#F49F45"/>
<path d="M32.7025 49.3883C32.6549 49.7719 32.9265 50.1219 33.3101 50.1695L38.4145 50.8079C38.4439 50.8114 38.4733 50.8135 38.502 50.8135C38.8499 50.8135 39.1516 50.5545 39.1957 50.2003C39.2433 49.8167 38.9717 49.4667 38.5881 49.4191L33.4837 48.7807C33.1001 48.7359 32.7515 49.0054 32.7025 49.3883Z" fill="#F49F45"/>
<path d="M38.2241 52.172L33.9632 51.64C33.5796 51.5959 33.2303 51.864 33.182 52.2476C33.1344 52.6312 33.406 52.9812 33.7896 53.0288L38.0505 53.5608C38.0799 53.5643 38.1093 53.5664 38.138 53.5664C38.4859 53.5664 38.7876 53.3074 38.8317 52.9532C38.8793 52.5703 38.6077 52.2203 38.2241 52.172Z" fill="#F49F45"/>
</svg>
