<svg width="72" height="72" viewBox="0 0 72 72" fill="none" xmlns="http://www.w3.org/2000/svg">
<rect width="72" height="72" rx="17.0769" fill="#FEFBFF"/>
<path d="M28.7616 39.5093C28.7616 39.5093 27.3769 41.9407 26.9438 43.729C26.5139 45.514 26.7502 46.2129 27.2194 47.6697C27.7575 49.3333 28.4105 50.6852 29.6672 49.8879C30.6844 49.2415 30.7927 47.6862 30.6384 47.0693C30.4842 46.4524 30.3464 45.5927 30.4088 45.2219C30.4711 44.8512 31.1634 43.1744 31.718 42.3738C32.2725 41.5732 32.2725 40.4018 32.1806 40.3099C32.0855 40.218 28.7616 39.5093 28.7616 39.5093Z" fill="#4D4D4D"/>
<path d="M31.9805 51.5052C31.9805 51.5052 31.5867 53.6774 31.7967 53.6774C32.0034 53.6774 33.4603 53.6085 33.9689 53.2607C34.4775 52.9129 34.9336 51.7349 35.3536 50.3962C35.8622 48.7785 36.5709 46.7048 36.7383 46.1929C37.0467 45.2545 37.3847 44.2996 37.3847 44.2996C37.3847 44.2996 38.9531 44.1585 39.9244 44.1159C41.4731 44.047 42.5494 43.9748 42.7889 44.1388C43.0908 44.3455 44.4787 45.2807 44.82 45.7795C45.3286 46.5177 43.5731 49.9827 43.5731 49.9827C43.5731 49.9827 42.3262 51.0918 42.3722 51.7152C42.4181 52.3387 43.6191 52.2698 44.6822 52.2238C45.7453 52.1779 46.313 51.876 46.4606 51.7152C47.0151 51.1148 47.5926 49.4741 47.9634 48.1354C48.3178 46.8524 48.7936 46.0551 48.6558 45.2249C48.518 44.3948 44.3147 40.8379 44.3147 40.8379L33.9919 43.3316L31.9805 51.5052Z" fill="#4D4D4D"/>
<path d="M26.1628 22.5684L31.5834 20.3831C31.5834 20.3831 31.0584 18.9984 30.3825 17.7974C29.7066 16.5965 28.1972 14.3488 27.4884 14.5326C26.7797 14.7163 26.0381 18.142 25.8708 19.0607C25.5295 20.9343 26.1628 22.5684 26.1628 22.5684Z" fill="#4D4D4D"/>
<path d="M21.1425 27.3554C21.1327 27.3554 20.0203 27.3554 19.2623 27.3324C18.5011 27.3095 17.7923 27.2865 17.7923 27.2865C17.7923 27.2865 17.4413 27.2766 17.4413 26.9321C17.4413 26.5843 17.8055 26.6007 17.8055 26.6007C17.8055 26.6007 18.5175 26.6237 19.282 26.6466C20.0302 26.6696 21.1327 26.6696 21.1425 26.6696C21.3328 26.6696 21.487 26.8238 21.487 27.0141C21.487 27.2045 21.3328 27.3554 21.1425 27.3554Z" fill="#B0B1B2"/>
<path d="M17.812 29.4391C17.812 29.4391 17.4872 29.5276 17.415 29.1733C17.3428 28.8156 17.6644 28.7664 17.6644 28.7664C17.6644 28.7664 18.6061 28.4875 19.2558 28.3497C19.8989 28.2119 21.2377 27.9592 21.2508 27.9559C21.4378 27.9198 21.6183 28.0445 21.6544 28.2316C21.6905 28.4186 21.5658 28.5991 21.3788 28.6351C21.3656 28.6384 20.0367 28.8911 19.4002 29.0256C18.7538 29.1601 17.812 29.4391 17.812 29.4391Z" fill="#B0B1B2"/>
<path d="M19.4034 31.214C19.2919 31.214 19.1836 31.1582 19.1147 31.0598C19.0644 30.9834 19.0462 30.8904 19.064 30.8007C19.0818 30.7111 19.1342 30.632 19.2099 30.5807L21.008 29.173C21.0843 29.1228 21.1774 29.1046 21.267 29.1224C21.3567 29.1402 21.4357 29.1926 21.487 29.2682C21.592 29.4257 21.5494 29.639 21.3919 29.7473L19.7053 31.0762C19.6463 31.1155 19.4691 31.214 19.4034 31.214Z" fill="#B0B1B2"/>
<path d="M26.9897 35.106C26.9897 35.3816 27.1833 37.4291 27.4064 38.8925C27.6361 40.4183 28.3317 41.5733 29.7164 42.4953C31.38 43.6044 32.8566 43.7881 32.8566 43.7881C32.8566 43.7881 32.348 46.9283 31.6556 49.0086C31.5309 49.386 30.7795 50.9249 30.6155 51.1808C30.4514 51.4367 30.015 52.175 30.0839 52.7066C30.1594 53.2841 30.5925 53.9535 32.4398 53.5827C33.9361 53.2841 34.0805 51.7747 34.5202 50.5508C34.6842 50.0914 35.7047 47.2564 35.9048 46.5936C36.3478 45.1269 36.5972 44.1392 36.8301 43.8833C37.0598 43.6306 39.5109 43.5125 41.0334 43.4206C42.5592 43.3288 45.007 43.2828 45.007 43.2828C45.007 43.2828 46.0472 44.136 47.2022 44.6675C49.0003 45.4944 50.6901 45.7306 51.4744 46.7938C52.2323 47.8175 52.1076 48.8052 51.937 49.6353C51.6614 50.9741 51.1561 51.7124 51.2447 52.198C51.3595 52.8444 51.983 52.9133 53.2758 52.9363C54.5259 52.9592 54.7687 52.7099 55.0083 52.1061C55.9566 49.7108 54.4308 46.61 54.3159 44.5527C54.2601 43.5781 52.7212 43.3058 52.3767 41.8719C52.0289 40.4413 51.9239 38.9844 51.5072 37.5538C51.0544 35.9919 50.49 34.6728 50.49 34.6728C50.49 34.6728 52.0978 33.695 53.092 32.6089C54.0862 31.5228 55.5037 30.0824 54.923 27.2342C54.4603 24.9702 52.9509 23.4608 49.3711 22.3288C45.8306 21.2099 45.1087 22.5092 45.007 23.3591C44.8692 24.5141 46.3458 24.9144 47.9175 25.213C49.4892 25.5116 52.4981 26.4697 51.6122 29.0947C51.0576 30.7353 48.6098 31.7361 48.6098 31.7361C48.6098 31.7361 46.2539 31.3817 43.0678 31.7296C40.4953 32.015 39.2747 32.6877 38.9991 32.5663C38.5823 32.3825 38.8612 31.7821 39.3009 31.0897C39.9966 29.9905 40.8497 28.55 40.8497 26.7486C40.8497 24.9472 39.9966 23.976 39.9966 23.976C39.9966 23.976 39.9736 20.442 39.465 18.4339C38.9564 16.4258 38.0081 14.0896 37.0139 14.0436C36.0197 13.9977 34.2642 16.4225 33.8048 17.1838C33.3455 17.945 32.5809 19.5167 32.5809 19.5167C32.5809 19.5167 29.8903 19.1919 27.6394 20.278C25.6641 21.2296 24.4533 24.2056 23.8528 24.4353C23.2523 24.665 21.8348 24.6125 21.2803 25.5378C21.0506 25.9185 21.0276 28.4549 21.0276 28.4549C21.0276 28.4549 21.2016 29.0553 21.3853 29.5803C21.5297 29.9905 22.2778 31.0897 23.1769 31.7492C24.345 32.6056 25.9069 33.8164 26.2514 34.0921C26.5959 34.3677 26.9897 35.106 26.9897 35.106Z" fill="#5D6265"/>
<path d="M33.7819 20.9471C33.8048 21.4327 34.9139 22.0791 35.4914 22.4959C36.0689 22.9126 36.8991 23.8248 37.2239 23.7657C37.7981 23.664 37.7555 21.226 37.6406 20.1399C37.5258 19.0538 36.9483 17.2524 36.5775 17.1146C36.2067 16.9768 35.2486 18.3582 35.0058 18.7323C34.5891 19.3787 33.7589 20.5107 33.7819 20.9471Z" fill="#FFAB93"/>
<path d="M22.0973 27.6375C22.2515 27.4538 24.5812 26.8369 24.6567 26.4202C24.7322 26.0035 24.1809 25.6655 23.2097 25.4358C22.3369 25.2291 21.5395 25.3111 21.3426 25.4522C21.0801 25.636 20.7881 26.5777 20.8669 27.5325C20.9456 28.5202 21.2803 29.3274 21.7134 29.7638C22.0153 30.0689 22.7503 30.548 23.3967 30.5939C24.0431 30.6399 24.6436 30.3642 24.9684 30.0394C25.2933 29.7145 25.0603 29.1928 24.5681 29.4849C24.0759 29.7769 23.7478 29.8655 23.3212 29.7474C22.875 29.6227 22.2351 29.1863 22.1006 28.471C22.0153 28.0444 22.0973 27.6375 22.0973 27.6375Z" fill="#2F2F2F"/>
<path d="M31.7737 30.6004C31.7212 30.6004 31.6687 30.5873 31.6195 30.5643C31.6097 30.5611 30.6975 30.0984 29.9067 29.8654C29.093 29.6259 28.3317 29.4422 28.3219 29.4389C28.1381 29.3929 28.0233 29.2092 28.0659 29.0222C28.1119 28.8384 28.2956 28.7236 28.4827 28.7662C28.4892 28.7695 29.2702 28.9565 30.1003 29.2026C30.9534 29.4553 31.8886 29.9311 31.928 29.9508C31.9969 29.9855 32.0521 30.0425 32.0846 30.1125C32.1172 30.1825 32.1252 30.2614 32.1074 30.3365C32.0896 30.4116 32.0469 30.4785 31.9864 30.5264C31.9259 30.5743 31.8509 30.6004 31.7737 30.6004Z" fill="#B0B1B2"/>
<path d="M31.4194 32.9728C31.3472 32.9728 31.275 32.9499 31.2159 32.9039C31.2061 32.8974 30.1495 32.1164 29.4703 31.6472C28.8108 31.1944 27.8986 30.7711 27.8887 30.7678C27.8087 30.7281 27.7473 30.6588 27.7174 30.5745C27.6875 30.4903 27.6915 30.3978 27.7285 30.3165C27.7655 30.2351 27.8327 30.1714 27.9159 30.1387C27.9991 30.1059 28.0917 30.1068 28.1742 30.1411C28.2136 30.1608 29.1487 30.5906 29.8575 31.0795C30.5466 31.5553 31.613 32.3395 31.6228 32.3494C31.777 32.461 31.8066 32.6775 31.695 32.8317C31.6294 32.9236 31.5244 32.9728 31.4194 32.9728Z" fill="#B0B1B2"/>
<path d="M29.7886 34.174C29.7066 34.174 29.6245 34.1444 29.5589 34.0854L27.2817 32.0543C27.1406 31.9263 27.1275 31.7098 27.2555 31.5687C27.3834 31.4276 27.6 31.4144 27.7411 31.5424L30.0183 33.5735C30.07 33.6201 30.1063 33.6812 30.1226 33.7489C30.1389 33.8165 30.1343 33.8875 30.1094 33.9525C30.0846 34.0175 30.0406 34.0735 29.9833 34.113C29.9261 34.1525 29.8582 34.1738 29.7886 34.174Z" fill="#B0B1B2"/>
<path d="M29.8232 26.3144C30.2545 25.5673 30.1271 24.6863 29.5385 24.3465C28.95 24.0067 28.1233 24.3369 27.692 25.0839C27.2607 25.8309 27.3881 26.712 27.9767 27.0518C28.5652 27.3915 29.3919 27.0614 29.8232 26.3144Z" fill="#010000"/>
<path d="M28.6533 25.4654C28.4728 25.8034 28.1578 26.02 27.8986 25.8592C27.6394 25.6984 27.787 25.1832 27.9314 24.9896C28.0758 24.7961 28.335 24.5532 28.5909 24.714C28.8534 24.8781 28.7747 25.2423 28.6533 25.4654Z" fill="#DEDEDE"/>
</svg>
