<svg width="232" height="232" viewBox="0 0 232 232" fill="none" xmlns="http://www.w3.org/2000/svg">
<g filter="url(#filter0_dddd_93_77)">
<rect x="80" y="29" width="72" height="72" rx="17.0769" fill="#FEFBFF"/>
</g>
<path d="M133.65 59.4938C133.65 50.0375 125.957 42.3438 116.5 42.3438C107.043 42.3438 99.35 50.0375 99.35 59.4938C99.35 66.0682 103.07 71.7872 108.514 74.6642C108.518 74.7006 108.516 74.7363 108.524 74.7727L110.554 84.95C110.684 85.6066 111.259 85.9083 111.928 85.9083H114.296C114.539 86.6083 114.984 86.6083 115.502 86.6083H116.902C117.418 86.6083 117.865 86.6083 118.108 85.9083H120.468C121.138 85.9083 121.715 85.5842 121.842 84.9255L123.783 75.0037C129.607 72.2597 133.65 66.3475 133.65 59.4938ZM119.312 83.1083H113.078L111.631 75.9116C113.176 76.3694 114.809 76.6312 116.501 76.6312C117.945 76.6312 119.349 76.4317 120.691 76.0936L119.312 83.1083ZM114.482 73.6226L112.54 64.2713C112.572 64.2734 112.602 64.2797 112.635 64.2797C113.243 64.2797 113.769 63.8534 114.102 63.1016C114.122 63.0785 114.14 63.0547 114.156 63.0288C114.189 62.9791 114.217 62.9427 114.24 62.9182C114.263 62.9434 114.291 62.9784 114.323 63.0281C114.343 63.0596 114.367 63.0897 114.394 63.117C114.728 63.8548 115.25 64.272 115.852 64.272C116.187 64.272 116.814 64.1334 117.266 63.2094C117.271 63.201 117.276 63.1919 117.28 63.1828C117.296 63.1499 117.311 63.1156 117.326 63.0813C117.34 63.0645 117.352 63.0463 117.364 63.0281C117.397 62.9784 117.425 62.942 117.448 62.9175C117.472 62.942 117.5 62.9784 117.532 63.0281C117.547 63.0519 117.565 63.0736 117.583 63.0953C117.915 63.8513 118.443 64.279 119.054 64.279C119.663 64.279 120.19 63.8527 120.523 63.1002C120.542 63.0771 120.561 63.0533 120.577 63.0274C120.608 62.9784 120.637 62.942 120.659 62.9175C120.678 62.9364 120.701 62.9693 120.724 63.0029L118.519 73.6219C118.515 73.6429 118.522 73.6639 118.519 73.6849C117.859 73.778 117.188 73.8431 116.501 73.8431C115.815 73.8431 115.145 73.778 114.484 73.6849C114.48 73.6646 114.487 73.6443 114.482 73.6226ZM119.995 73.3972L122.182 62.8671C122.249 62.5465 122.077 62.242 121.793 62.1062C121.166 61.3138 120.144 61.3005 119.521 62.0971C119.419 62.1762 119.338 62.284 119.292 62.4107C119.204 62.648 119.112 62.7817 119.053 62.8461C118.993 62.7824 118.901 62.6487 118.813 62.4107C118.773 62.2994 118.7 62.2035 118.608 62.1279C118.188 61.5714 117.708 61.4832 117.447 61.4832C117.189 61.4832 116.713 61.57 116.296 62.1146C116.205 62.1902 116.133 62.2896 116.089 62.4058C116.067 62.466 116.042 62.5241 116.022 62.5661C116.019 62.5717 116.016 62.578 116.013 62.5836C115.95 62.7131 115.892 62.7929 115.851 62.837C115.792 62.7733 115.701 62.641 115.614 62.4072C115.57 62.291 115.491 62.1909 115.391 62.1153C115.078 61.7058 114.674 61.4825 114.239 61.4825C113.983 61.4825 113.516 61.5672 113.102 62.0964C113 62.1755 112.919 62.2826 112.873 62.4093C112.785 62.6473 112.692 62.781 112.633 62.8454C112.574 62.7817 112.481 62.648 112.394 62.4093C112.292 62.1342 111.995 61.9508 111.701 61.9508C111.583 61.9508 111.479 61.9872 111.384 62.039C111.376 62.0404 111.369 62.0376 111.361 62.039C110.983 62.1174 110.739 62.4884 110.818 62.8664L113.005 73.3965C106.772 71.8348 102.15 66.2117 102.15 59.4938C102.15 51.5677 108.575 45.1438 116.5 45.1438C124.425 45.1438 130.85 51.5677 130.85 59.4938C130.85 66.2117 126.228 71.8348 119.995 73.3972Z" fill="#F49F45"/>
<path d="M114.989 48.2197C114.716 48.2197 114.445 48.2309 114.177 48.2526C113.792 48.2841 113.505 48.6222 113.537 49.0079C113.568 49.3733 113.873 49.6505 114.234 49.6505C114.253 49.6505 114.273 49.6498 114.292 49.6484C114.522 49.6295 114.755 49.6197 114.989 49.6197C115.376 49.6197 115.689 49.3061 115.689 48.9197C115.689 48.5333 115.376 48.2197 114.989 48.2197Z" fill="#F49F45"/>
<path d="M110.921 49.1049C107.462 50.6932 105.226 54.1778 105.226 57.983C105.226 58.3694 105.539 58.683 105.926 58.683C106.313 58.683 106.626 58.3694 106.626 57.983C106.626 54.7231 108.541 51.7376 111.505 50.3768C111.856 50.2158 112.011 49.8 111.849 49.4486C111.687 49.0979 111.271 48.9439 110.921 49.1049Z" fill="#F49F45"/>
<path d="M112.702 78.3883C112.655 78.7719 112.926 79.1219 113.31 79.1695L118.414 79.8079C118.444 79.8114 118.473 79.8135 118.502 79.8135C118.85 79.8135 119.152 79.5545 119.196 79.2003C119.243 78.8167 118.972 78.4667 118.588 78.4191L113.484 77.7807C113.1 77.7359 112.751 78.0054 112.702 78.3883Z" fill="#F49F45"/>
<path d="M118.224 81.172L113.963 80.64C113.58 80.5959 113.23 80.864 113.182 81.2476C113.134 81.6312 113.406 81.9812 113.79 82.0288L118.05 82.5608C118.08 82.5643 118.109 82.5664 118.138 82.5664C118.486 82.5664 118.788 82.3074 118.832 81.9532C118.879 81.5703 118.608 81.2203 118.224 81.172Z" fill="#F49F45"/>
<defs>
<filter id="filter0_dddd_93_77" x="0" y="0" width="232" height="232" filterUnits="userSpaceOnUse" color-interpolation-filters="sRGB">
<feFlood flood-opacity="0" result="BackgroundImageFix"/>
<feColorMatrix in="SourceAlpha" type="matrix" values="0 0 0 0 0 0 0 0 0 0 0 0 0 0 0 0 0 0 127 0" result="hardAlpha"/>
<feOffset dy="2.30969"/>
<feGaussianBlur stdDeviation="1.81152"/>
<feColorMatrix type="matrix" values="0 0 0 0 0.662745 0 0 0 0 0.313726 0 0 0 0 0.768627 0 0 0 0.0278729 0"/>
<feBlend mode="normal" in2="BackgroundImageFix" result="effect1_dropShadow_93_77"/>
<feColorMatrix in="SourceAlpha" type="matrix" values="0 0 0 0 0 0 0 0 0 0 0 0 0 0 0 0 0 0 127 0" result="hardAlpha"/>
<feOffset dy="6.38599"/>
<feGaussianBlur stdDeviation="5.00862"/>
<feColorMatrix type="matrix" values="0 0 0 0 0.662745 0 0 0 0 0.313726 0 0 0 0 0.768627 0 0 0 0.04 0"/>
<feBlend mode="normal" in2="effect1_dropShadow_93_77" result="effect2_dropShadow_93_77"/>
<feColorMatrix in="SourceAlpha" type="matrix" values="0 0 0 0 0 0 0 0 0 0 0 0 0 0 0 0 0 0 127 0" result="hardAlpha"/>
<feOffset dy="15.375"/>
<feGaussianBlur stdDeviation="12.0588"/>
<feColorMatrix type="matrix" values="0 0 0 0 0.662745 0 0 0 0 0.313726 0 0 0 0 0.768627 0 0 0 0.0521271 0"/>
<feBlend mode="normal" in2="effect2_dropShadow_93_77" result="effect3_dropShadow_93_77"/>
<feColorMatrix in="SourceAlpha" type="matrix" values="0 0 0 0 0 0 0 0 0 0 0 0 0 0 0 0 0 0 127 0" result="hardAlpha"/>
<feOffset dy="51"/>
<feGaussianBlur stdDeviation="40"/>
<feColorMatrix type="matrix" values="0 0 0 0 0.662745 0 0 0 0 0.313726 0 0 0 0 0.768627 0 0 0 0.08 0"/>
<feBlend mode="normal" in2="effect3_dropShadow_93_77" result="effect4_dropShadow_93_77"/>
<feBlend mode="normal" in="SourceGraphic" in2="effect4_dropShadow_93_77" result="shape"/>
</filter>
</defs>
</svg>
