<svg width="45" height="34" viewBox="0 0 45 34" fill="none" xmlns="http://www.w3.org/2000/svg">
<path d="M43.207 29.0642C42.3843 30.9134 40.2622 32.5883 38.2695 32.9581C38.0656 32.9961 33.1956 33.875 22.5176 33.875H22.4895C11.8129 33.875 6.93871 32.9961 6.7362 32.9595C4.74348 32.5883 2.61998 30.9134 1.79589 29.0628C1.72276 28.8983 0.00427246 24.9411 0.00427246 17C0.00427246 9.05891 1.72276 5.10031 1.79589 4.93578C2.61998 3.08516 4.74348 1.41172 6.7362 1.04188C6.93871 1.00391 11.8129 0.125 22.4895 0.125C33.1956 0.125 38.0656 1.00391 38.2681 1.04047C40.2622 1.41172 42.3843 3.08516 43.2084 4.93438C43.2816 5.10031 45.0043 9.05891 45.0043 17C45.0043 24.9411 43.2816 28.8983 43.207 29.0642ZM40.6349 6.07344C40.1962 5.08766 38.8208 4.00484 37.7548 3.80656C37.7098 3.79813 32.8905 2.9375 22.5176 2.9375C12.1181 2.9375 7.2945 3.79813 7.24809 3.80656C6.18212 4.00484 4.80817 5.08766 4.368 6.07906C4.35394 6.10859 2.81827 9.72828 2.81827 17C2.81827 24.2703 4.35394 27.89 4.37081 27.9266C4.80817 28.9123 6.18212 29.9952 7.2495 30.1934C7.2945 30.2019 12.1181 31.0625 22.4895 31.0625H22.5176C32.8905 31.0625 37.7098 30.2019 37.7562 30.1934C38.8222 29.9952 40.1962 28.9123 40.6363 27.9209C40.6504 27.89 42.1889 24.2703 42.1889 17C42.1889 9.72969 40.6504 6.10859 40.6349 6.07344ZM19.0455 25.2209C18.8177 25.3658 18.5561 25.4375 18.2959 25.4375C18.0625 25.4375 17.829 25.3798 17.6167 25.2617C17.1681 25.0142 16.8896 24.5431 16.8896 24.0312V9.96875C16.8896 9.45828 17.1653 8.98859 17.6111 8.74109C18.0569 8.49219 18.6039 8.50344 19.0356 8.77203L30.3127 15.7414C30.7248 15.9959 30.9779 16.4459 30.9793 16.9311C30.9807 17.4163 30.7332 17.8691 30.3226 18.1264L19.0455 25.2209ZM19.7036 12.4916V21.4845L26.9151 16.948L19.7036 12.4916Z" fill="#F49F45"/>
</svg>
