<svg width="38" height="38" viewBox="0 0 38 38" fill="none" xmlns="http://www.w3.org/2000/svg">
<path d="M38 15.58C34.2644 15.587 30.6208 14.5666 27.5839 12.663V25.9346C27.5831 28.3925 26.7246 30.7917 25.1234 32.8111C23.5221 34.8306 21.2545 36.3741 18.6236 37.2352C15.9928 38.0962 13.1242 38.2339 10.4016 37.6297C7.67896 37.0254 5.23204 35.7082 3.3881 33.854C1.54416 31.9999 0.391106 29.6972 0.0831543 27.2541C-0.224798 24.8109 0.327032 22.3437 1.66484 20.1825C3.00265 18.0212 5.06266 16.2689 7.56935 15.1599C10.076 14.0509 12.9099 13.6382 15.692 13.9768V20.6497C14.4199 20.2993 13.0538 20.3095 11.7887 20.679C10.5237 21.0484 9.42439 21.7582 8.6478 22.707C7.8712 23.6558 7.45702 24.795 7.46439 25.962C7.47176 27.1291 7.90031 28.2642 8.68885 29.2054C9.47738 30.1466 10.5856 30.8457 11.8552 31.2029C13.1248 31.5601 14.491 31.5572 15.7586 31.1945C17.0262 30.8318 18.1304 30.1278 18.9136 29.1832C19.6968 28.2386 20.1189 27.1016 20.1196 25.9346V0H27.5839C27.5797 0.552438 27.6337 1.10404 27.7451 1.64782C28.0047 2.85993 28.544 4.01299 29.3301 5.03653C30.1162 6.06007 31.1325 6.93258 32.317 7.60075C34.003 8.57522 35.9794 9.09407 38 9.09269V15.58Z" fill="#F49F45"/>
</svg>
